<?xml version="1.0" standalone="no"?>
<!DOCTYPE svg PUBLIC "-//W3C//DTD SVG 20010904//EN"
 "http://www.w3.org/TR/2001/REC-SVG-20010904/DTD/svg10.dtd">
<svg version="1.0" xmlns="http://www.w3.org/2000/svg"
 width="512.000000pt" height="512.000000pt" viewBox="0 0 512.000000 512.000000"
 preserveAspectRatio="xMidYMid meet">
<metadata>
Created by potrace 1.11, written by Peter Selinger 2001-2013
</metadata>
<g transform="translate(0.000000,512.000000) scale(0.100000,-0.100000)"
fill="#000000" stroke="none">
<path d="M1010 5105 c-486 -76 -864 -437 -987 -940 -15 -63 -17 -176 -20
-1167 l-4 -1098 551 0 550 0 0 78 c0 68 9 112 46 232 3 10 -17 29 -57 55 -125
82 -273 266 -337 420 -59 144 -85 343 -63 496 85 581 640 951 1206 804 220
-58 429 -209 555 -402 l53 -83 83 0 c191 0 393 -67 559 -185 116 -83 263 -254
305 -354 12 -29 15 -31 69 -31 92 0 234 -35 325 -79 206 -100 343 -259 418
-486 28 -86 36 -295 14 -388 -9 -38 -16 -70 -16 -73 0 -2 194 -4 430 -4 l431
0 -4 1098 c-3 1075 -4 1099 -24 1182 -123 495 -505 852 -993 926 -135 20
-2959 19 -3090 -1z"/>
</g>
</svg>
